<?xml version="1.0" encoding="utf-8"?>
<!-- Generator: Adobe Illustrator 16.2.0, SVG Export Plug-In . SVG Version: 6.00 Build 0)  -->
<!DOCTYPE svg PUBLIC "-//W3C//DTD SVG 1.1//EN" "http://www.w3.org/Graphics/SVG/1.1/DTD/svg11.dtd">
<svg version="1.1" id="Layer_1" xmlns="http://www.w3.org/2000/svg" xmlns:xlink="http://www.w3.org/1999/xlink" x="0px" y="0px"
	 width="28.584px" height="17.281px" viewBox="0 0 28.584 17.281" enable-background="new 0 0 28.584 17.281" xml:space="preserve">
<g>
	<defs>
		<rect id="SVGID_1_" width="28.584" height="17.281"/>
	</defs>
	<clipPath id="SVGID_2_">
		<use xlink:href="#SVGID_1_"  overflow="visible"/>
	</clipPath>
	<path clip-path="url(#SVGID_2_)" fill="#3D3D3D" d="M25.583,17.281H3c-1.65,0-3-1.351-3-3V3c0-1.65,1.35-3,3-3h22.583
		c1.65,0,3,1.35,3,3v11.281C28.583,15.93,27.233,17.281,25.583,17.281"/>
	<rect x="11.409" y="3.461" clip-path="url(#SVGID_2_)" fill="#FF5F00" width="5.765" height="10.36"/>
	<path clip-path="url(#SVGID_2_)" fill="#EB001B" d="M11.775,8.641c-0.002-2.021,0.926-3.933,2.517-5.181
		c-2.861-2.248-7.003-1.752-9.251,1.11c-2.249,2.86-1.752,7.003,1.109,9.251c2.389,1.878,5.752,1.878,8.142,0
		C12.702,12.573,11.774,10.662,11.775,8.641"/>
	<path clip-path="url(#SVGID_2_)" fill="#F79E1B" d="M24.952,8.641c0,3.639-2.95,6.589-6.589,6.589
		c-1.477,0-2.911-0.496-4.072-1.409c2.861-2.248,3.358-6.391,1.109-9.251c-0.323-0.413-0.696-0.785-1.109-1.11
		c2.861-2.249,7.003-1.753,9.252,1.108C24.455,5.729,24.952,7.162,24.952,8.641L24.952,8.641z"/>
</g>
</svg>
