<?xml version="1.0" encoding="utf-8"?>
<!-- Generator: Adobe Illustrator 16.2.0, SVG Export Plug-In . SVG Version: 6.00 Build 0)  -->
<!DOCTYPE svg PUBLIC "-//W3C//DTD SVG 1.1//EN" "http://www.w3.org/Graphics/SVG/1.1/DTD/svg11.dtd">
<svg version="1.1" id="Layer_1" xmlns="http://www.w3.org/2000/svg" xmlns:xlink="http://www.w3.org/1999/xlink" x="0px" y="0px"
	 width="22.942px" height="29.974px" viewBox="0 0 22.942 29.974" enable-background="new 0 0 22.942 29.974" xml:space="preserve">
<g>
	<g>
		<path d="M22.104,2.332l-7.99-0.508c0.017-0.269,0.025-0.345,0.051-0.771c0.026-0.426-0.29-0.792-0.707-0.819L9.81,0.001
			c-0.416-0.027-0.774,0.297-0.8,0.723C8.983,1.15,8.983,1.294,8.971,1.496L0.977,0.988C0.484,0.956,0.06,1.34,0.029,1.844
			L0.002,2.291c-0.03,0.504,0.345,0.938,0.837,0.97l21.127,1.344c0.493,0.031,0.918-0.352,0.948-0.856l0.026-0.446
			C22.972,2.798,22.597,2.363,22.104,2.332z M21.552,5.669H1.485c-0.468,0-0.847,0.388-0.847,0.867l3.398,22.571
			c0,0.479,0.379,0.867,0.847,0.867h13.269c0.468,0,0.848-0.388,0.848-0.867l3.398-22.571C22.398,6.057,22.02,5.669,21.552,5.669z
			 M7.516,26.744l-0.337,0.043c-0.465,0.059-0.887-0.281-0.943-0.756L4.343,10.139C4.286,9.664,4.617,9.231,5.081,9.174l0.338-0.042
			c0.465-0.058,0.887,0.281,0.943,0.756l1.893,15.892C8.312,26.253,7.98,26.686,7.516,26.744z M12.536,25.963
			c0,0.479-0.38,0.866-0.848,0.866h-0.34c-0.468,0-0.848-0.388-0.848-0.866V9.955c0-0.479,0.38-0.868,0.848-0.868h0.34
			c0.468,0,0.848,0.389,0.848,0.868V25.963z M16.841,26.031c-0.057,0.475-0.479,0.814-0.943,0.756l-0.338-0.043
			c-0.465-0.058-0.795-0.49-0.738-0.965l1.892-15.892c0.057-0.475,0.479-0.814,0.943-0.756l0.338,0.042
			c0.465,0.058,0.795,0.49,0.738,0.965L16.841,26.031z"/>
	</g>
</g>
</svg>
