<?xml version="1.0" encoding="utf-8"?>
<!-- Generator: Adobe Illustrator 16.2.0, SVG Export Plug-In . SVG Version: 6.00 Build 0)  -->
<!DOCTYPE svg PUBLIC "-//W3C//DTD SVG 1.1//EN" "http://www.w3.org/Graphics/SVG/1.1/DTD/svg11.dtd">
<svg version="1.1" id="Layer_1" xmlns="http://www.w3.org/2000/svg" xmlns:xlink="http://www.w3.org/1999/xlink" x="0px" y="0px"
	 width="24.796px" height="33px" viewBox="0 0 24.796 33" enable-background="new 0 0 24.796 33" xml:space="preserve">
<g>
	<g>
		<g>
			<path fill="#016E81" d="M12.098,11.919c3.256,0,5.895-2.668,5.895-5.96S15.354,0,12.098,0C8.84,0,6.201,2.668,6.201,5.959
				S8.84,11.919,12.098,11.919z M23.584,16.963c-0.592-1.794-7.711-3.668-7.711-3.668c-0.428,0.713-3.475,4.434-3.475,4.434
				s-2.64-3.319-3.476-4.434c0,0-7.119,1.875-7.71,3.668c-0.454,1.375-1.814,11.002-0.907,11.92C1.163,29.75,11.879,33,12.398,33
				c0.518,0,11.234-3.249,12.092-4.116C25.398,27.965,24.037,18.338,23.584,16.963z"/>
		</g>
	</g>
	<path fill="#69BE44" d="M12.398,17.729c0,0-2.64-3.319-3.476-4.434c0,0-7.119,1.875-7.71,3.668
		c-0.454,1.375-1.814,11.002-0.907,11.92C1.163,29.75,4.557,30.774,5.398,31C6.917,28.729,12.398,17.729,12.398,17.729z"/>
</g>
</svg>
