<?xml version="1.0" encoding="utf-8"?>
<!-- Generator: Adobe Illustrator 16.2.0, SVG Export Plug-In . SVG Version: 6.00 Build 0)  -->
<!DOCTYPE svg PUBLIC "-//W3C//DTD SVG 1.1//EN" "http://www.w3.org/Graphics/SVG/1.1/DTD/svg11.dtd">
<svg version="1.1" id="Layer_1" xmlns="http://www.w3.org/2000/svg" xmlns:xlink="http://www.w3.org/1999/xlink" x="0px" y="0px"
	 width="76.29px" height="85.992px" viewBox="0 0 76.29 85.992" enable-background="new 0 0 76.29 85.992" xml:space="preserve">
<polygon fill="#006E82" points="38.342,0 0,20.854 76.291,20.854 "/>
<rect x="5.358" y="27.042" fill="#69BE44" width="5.809" height="38.543"/>
<rect x="13.448" y="27.042" fill="#69BE44" width="5.809" height="38.543"/>
<rect x="56.087" y="27.042" fill="#69BE44" width="5.81" height="38.543"/>
<rect x="64.177" y="27.042" fill="#69BE44" width="5.81" height="38.543"/>
<g>
	<defs>
		<rect id="SVGID_1_" y="0" width="76.29" height="85.992"/>
	</defs>
	<clipPath id="SVGID_2_">
		<use xlink:href="#SVGID_1_"  overflow="visible"/>
	</clipPath>
	<path clip-path="url(#SVGID_2_)" fill="#006E82" d="M44.547,72.787c0-0.69-0.512-1.251-1.142-1.251h-12.58
		c-0.628,0-1.135,0.561-1.135,1.251c0,0.691,0.507,1.248,1.135,1.248h12.58C44.035,74.035,44.547,73.478,44.547,72.787"/>
	<path clip-path="url(#SVGID_2_)" fill="#006E82" d="M46.532,78.766c0-0.691-0.512-1.256-1.142-1.256H28.84
		c-0.628,0-1.136,0.564-1.136,1.256c0,0.69,0.508,1.248,1.136,1.248h16.55C46.021,80.014,46.532,79.457,46.532,78.766"/>
	<path clip-path="url(#SVGID_2_)" fill="#006E82" d="M48.518,84.744c0-0.694-0.512-1.255-1.142-1.255H26.855
		c-0.628,0-1.136,0.561-1.136,1.255c0,0.688,0.508,1.247,1.136,1.247h20.521C48.006,85.991,48.518,85.431,48.518,84.744"/>
	<path clip-path="url(#SVGID_2_)" fill="#69BE44" d="M22.708,81.983H1.846c-0.759,0-1.38-0.621-1.38-1.38v-7.782
		c0-0.76,0.621-1.379,1.38-1.379h20.862c0.759,0,1.379,0.619,1.379,1.379v7.782C24.087,81.362,23.467,81.983,22.708,81.983"/>
	<path clip-path="url(#SVGID_2_)" fill="#69BE44" d="M73.521,81.983H52.552c-0.729,0-1.326-0.598-1.326-1.326v-7.891
		c0-0.728,0.597-1.324,1.326-1.324h20.969c0.729,0,1.326,0.597,1.326,1.324v7.891C74.847,81.385,74.25,81.983,73.521,81.983"/>
	<path clip-path="url(#SVGID_2_)" fill="#006E82" d="M45.543,65.585h-16.85h-1.568V28.73c0-0.928,0.706-1.688,1.568-1.688h16.85
		c0.862,0,1.568,0.76,1.568,1.688v36.855H45.543z"/>
</g>
</svg>
