<?xml version="1.0" encoding="utf-8"?>
<!-- Generator: Adobe Illustrator 16.2.0, SVG Export Plug-In . SVG Version: 6.00 Build 0)  -->
<!DOCTYPE svg PUBLIC "-//W3C//DTD SVG 1.1//EN" "http://www.w3.org/Graphics/SVG/1.1/DTD/svg11.dtd">
<svg version="1.1" id="Layer_1" xmlns="http://www.w3.org/2000/svg" xmlns:xlink="http://www.w3.org/1999/xlink" x="0px" y="0px"
	 width="13px" height="15px" viewBox="0 0 13 15" enable-background="new 0 0 13 15" xml:space="preserve">
<path fill="#69BE44" d="M5.934,0c0.033,0,0.059,0.004,0.073,0.008l6.886,7.233C12.986,7.339,13,7.452,13,7.513
	c0,0.059-0.014,0.174-0.107,0.271l-6.868,7.215C6.018,15,6.009,15,5.998,15c-0.105,0-0.214-0.039-0.281-0.076v-4.825H0.366
	C0.164,10.099,0,9.927,0,9.714V5.311c0-0.212,0.164-0.385,0.366-0.385h5.351V0.049C5.766,0.025,5.845,0,5.934,0z"/>
</svg>
