<?xml version="1.0" encoding="utf-8"?>
<!-- Generator: Adobe Illustrator 16.2.0, SVG Export Plug-In . SVG Version: 6.00 Build 0)  -->
<!DOCTYPE svg PUBLIC "-//W3C//DTD SVG 1.1//EN" "http://www.w3.org/Graphics/SVG/1.1/DTD/svg11.dtd">
<svg version="1.1" id="Layer_1" xmlns="http://www.w3.org/2000/svg" xmlns:xlink="http://www.w3.org/1999/xlink" x="0px" y="0px"
	 width="30.054px" height="29.065px" viewBox="0 0 30.054 29.065" enable-background="new 0 0 30.054 29.065" xml:space="preserve">
<g>
	<g>
		<path d="M28.813,1.214c-1.656-1.619-4.339-1.619-5.995,0l-1.698,1.66l5.993,5.858l1.7-1.659
			C30.467,5.454,30.467,2.829,28.813,1.214z M9.12,14.651l5.994,5.855l10.162-9.538l-6.012-5.876L9.12,14.651z M0.154,28.91
			c0.688,0.685,3.094-1.124,3.094-1.124l-1.947-1.903C1.301,25.883-0.533,28.223,0.154,28.91z M7.098,16.671l-4.519,7.291
			l2.785,2.717l7.752-4.532l-5.86-5.728L7.098,16.671z"/>
	</g>
</g>
</svg>
