<?xml version="1.0" encoding="utf-8"?>
<!-- Generator: Adobe Illustrator 16.2.0, SVG Export Plug-In . SVG Version: 6.00 Build 0)  -->
<!DOCTYPE svg PUBLIC "-//W3C//DTD SVG 1.1//EN" "http://www.w3.org/Graphics/SVG/1.1/DTD/svg11.dtd">
<svg version="1.1" id="Layer_1" xmlns="http://www.w3.org/2000/svg" xmlns:xlink="http://www.w3.org/1999/xlink" x="0px" y="0px"
	 width="62.182px" height="41.896px" viewBox="0 0 62.182 41.896" enable-background="new 0 0 62.182 41.896" xml:space="preserve">
<path fill="#FFFFFF" d="M62.008,19.103l-0.318-0.861l0,0L55.616,1.863c-0.537-1.447-2.151-2.21-3.609-1.708L20.033,11.173
	c-1.457,0.501-2.205,2.081-1.67,3.528l5.85,15.773l0.546,1.467c0.532,1.445,2.149,2.21,3.607,1.706l31.975-11.019
	C61.796,22.127,62.544,20.548,62.008,19.103z"/>
<g>
	<path fill="#006E82" d="M24.759,32.484c0.532,1.445,2.149,2.21,3.607,1.706l31.975-11.019c1.455-0.501,2.203-2.081,1.667-3.526
		l-0.543-1.466L24.213,31.018L24.759,32.484z"/>
	<path fill="#69BE44" d="M52.007,0.697L20.033,11.716c-1.457,0.501-2.205,2.081-1.67,3.528l4.359,11.75l37.255-12.836L55.616,2.406
		C55.079,0.958,53.465,0.195,52.007,0.697z M44.57,16.006l-20.1,6.974l-0.667-1.921l20.1-6.974L44.57,16.006z M56.109,11.045
		c0.175,0.504-0.092,1.056-0.597,1.231l-5.385,1.868c-0.505,0.176-1.055-0.093-1.229-0.598l-1.869-5.384
		c-0.175-0.504,0.091-1.056,0.597-1.231l5.385-1.868c0.504-0.175,1.056,0.093,1.229,0.597L56.109,11.045z"/>
</g>
<g>
	<path fill="#939393" d="M8.324,40.315c-0.953-0.924-1.875-1.934-2.742-3c-0.236-0.291-0.468-0.586-0.696-0.886
		c-1.051-1.383-2.006-2.857-2.839-4.384l-0.585-1.072l1.166-0.362c0.153-0.047,0.305-0.1,0.455-0.16
		c0.915-0.338,1.774-0.788,2.576-1.343l5.313-3.677c2.542-1.761,5.516-2.827,8.601-3.083c0.46-0.042,0.956-0.064,1.467-0.064h16.096
		c0.748,0,1.413,0.419,1.737,1.094c0.323,0.676,0.234,1.457-0.234,2.04c-0.775,0.974-1.729,1.769-2.83,2.359
		c-0.03,0.019-0.38,0.206-0.38,0.206H35.41c-0.428,0.205-0.889,0.381-1.372,0.524c-0.06,0.019-0.113,0.034-0.166,0.045
		c-0.653,0.185-1.327,0.294-2.004,0.328l-5.905,0.288c-0.189,0.009-0.366,0.045-0.529,0.107c-0.627,0.24-1.057,0.83-1.095,1.501
		c-0.004,1.039,0.762,1.806,1.703,1.806h5.766c2.374,0,4.723-0.793,6.612-2.233l5.507-4.203c1.384-1.058,3.107-1.64,4.852-1.64
		c0.494,0,0.99,0.046,1.476,0.137c0.848,0.155,1.466,0.901,1.466,1.773c0,0.527-0.222,1.01-0.623,1.359L38.85,38.242
		c-1.672,1.43-3.807,2.217-6.01,2.217c-0.297,0-0.595-0.014-0.894-0.043l-15.142-1.473c-0.338-0.033-0.677-0.05-1.015-0.05
		c-1.199,0-2.378,0.204-3.505,0.606l-3.517,1.247L8.324,40.315z"/>
	<g>
		<path fill="#FFFFFF" d="M37.135,23.284c0.778,0,1.209,0.904,0.724,1.508c-0.698,0.876-1.559,1.586-2.523,2.104
			c-0.053,0.031-0.103,0.059-0.155,0.087c-0.003,0-0.006,0-0.009,0.002c-0.451,0.233-0.929,0.418-1.417,0.563
			c-0.039,0.011-0.074,0.025-0.113,0.03c-0.588,0.169-1.2,0.272-1.821,0.302l-3.456,0.167l-0.122,0.008l-1.664,0.078l-0.178,0.011
			l-0.487,0.025c-0.291,0.014-0.574,0.072-0.835,0.172c-0.971,0.372-1.675,1.287-1.736,2.379c-0.006,0.056-0.006,0.103-0.006,0.152
			c0,1.487,1.207,2.709,2.707,2.709h5.766c2.609,0,5.145-0.857,7.219-2.438l5.507-4.204c1.227-0.937,2.722-1.435,4.245-1.435
			c0.43,0,0.862,0.04,1.291,0.12c0.41,0.075,0.65,0.427,0.65,0.79c0,0.22-0.088,0.438-0.279,0.605L38.2,37.482
			c-1.5,1.282-3.404,1.977-5.36,1.977c-0.266,0-0.531-0.013-0.797-0.038l-15.142-1.473c-0.37-0.036-0.741-0.055-1.111-0.055
			c-1.307,0-2.607,0.225-3.841,0.664l-2.347,0.835l-0.582,0.205c-0.938-0.909-1.825-1.883-2.662-2.913
			c-0.23-0.283-0.455-0.569-0.677-0.86c-1.029-1.354-1.949-2.776-2.757-4.257c0.178-0.055,0.353-0.116,0.527-0.186
			c0.981-0.363,1.911-0.852,2.776-1.451l5.313-3.677c2.41-1.669,5.211-2.667,8.114-2.909c0.458-0.042,0.921-0.061,1.384-0.061
			H37.135 M37.135,21.284H21.039c-0.541,0-1.067,0.023-1.566,0.069c-3.242,0.27-6.385,1.396-9.07,3.256L5.09,28.286
			c-0.733,0.508-1.518,0.918-2.332,1.22c-0.17,0.067-0.297,0.111-0.426,0.151L0,30.381l1.169,2.144
			c0.856,1.57,1.839,3.088,2.921,4.511c0.235,0.31,0.474,0.612,0.718,0.912c0.89,1.096,1.839,2.135,2.82,3.086l0.889,0.862
			l1.169-0.411l0.582-0.205l2.353-0.837c1.02-0.364,2.086-0.549,3.17-0.549c0.305,0,0.613,0.016,0.916,0.045l15.144,1.473
			c0.328,0.032,0.661,0.048,0.99,0.048c2.441,0,4.807-0.872,6.66-2.456l12.239-10.46c0.628-0.546,0.98-1.316,0.98-2.125
			c0-1.354-0.963-2.514-2.29-2.757c-0.537-0.101-1.096-0.153-1.651-0.153c-1.963,0-3.901,0.655-5.459,1.846l-5.507,4.203
			c-1.715,1.307-3.849,2.027-6.005,2.027h-5.766c-0.388,0-0.703-0.314-0.707-0.702l0.003-0.047c0.016-0.279,0.194-0.524,0.454-0.624
			c0.043-0.016,0.116-0.037,0.217-0.042l0.492-0.025l0.202-0.013l1.632-0.076l0.156-0.01l3.425-0.166
			c0.741-0.036,1.479-0.155,2.194-0.354c0.1-0.022,0.176-0.046,0.217-0.06c0.452-0.134,0.89-0.295,1.304-0.481h0.044l0.438-0.231
			c0.03-0.016,0.06-0.032,0.089-0.048l0.081-0.042l0.015-0.012c0.006-0.003,0.012-0.007,0.019-0.011
			c1.206-0.653,2.251-1.528,3.106-2.601c0.706-0.88,0.843-2.067,0.351-3.093C39.282,21.921,38.271,21.284,37.135,21.284
			L37.135,21.284z"/>
	</g>
</g>
</svg>
