<?xml version="1.0" encoding="utf-8"?>
<!-- Generator: Adobe Illustrator 16.2.0, SVG Export Plug-In . SVG Version: 6.00 Build 0)  -->
<!DOCTYPE svg PUBLIC "-//W3C//DTD SVG 1.1//EN" "http://www.w3.org/Graphics/SVG/1.1/DTD/svg11.dtd">
<svg version="1.1" id="Layer_1" xmlns="http://www.w3.org/2000/svg" xmlns:xlink="http://www.w3.org/1999/xlink" x="0px" y="0px"
	 width="14.917px" height="14.945px" viewBox="0 0 14.917 14.945" enable-background="new 0 0 14.917 14.945" xml:space="preserve">
<path fill-rule="evenodd" clip-rule="evenodd" fill="#69BE44" d="M2.491,0c1.041,1.039,1.729,2.078,2.485,3.118
	C4.145,4.716,3.537,5.717,5.107,7.536c1.22,1.415,3.413,3.617,4.643,3.444c0.817-0.115,1.276-0.925,2.094-1.04
	c0.98,0.667,2.31,1.647,3.073,2.404c0.01,1.33-1.85,2.543-3.009,2.6c-1.159,0.055-4.35-1.803-5.886-3.119
	c-2.104-1.805-3.82-3.9-4.839-5.848c-0.555-1.06-1.257-2.289-1.177-2.989C0.144,1.776,1.249,0.363,2.491,0z"/>
</svg>
