<?xml version="1.0" encoding="utf-8"?>
<!-- Generator: Adobe Illustrator 16.2.0, SVG Export Plug-In . SVG Version: 6.00 Build 0)  -->
<!DOCTYPE svg PUBLIC "-//W3C//DTD SVG 1.1//EN" "http://www.w3.org/Graphics/SVG/1.1/DTD/svg11.dtd">
<svg version="1.1" id="Layer_1" xmlns="http://www.w3.org/2000/svg" xmlns:xlink="http://www.w3.org/1999/xlink" x="0px" y="0px"
	 width="77.938px" height="47.487px" viewBox="0 0 77.938 47.487" enable-background="new 0 0 77.938 47.487" xml:space="preserve">
<path fill-rule="evenodd" clip-rule="evenodd" fill="#69BE44" d="M20.188,0.111c1.495-0.149,2.987-0.147,4.458,0.002
	c0.544,0.055,0.957,0.502,0.966,1.05c0.042,2.176,1.349,4.229,3.489,5.115c2.14,0.887,4.513,0.36,6.083-1.151
	c0.394-0.38,1.004-0.405,1.427-0.056c1.146,0.932,2.202,1.986,3.154,3.149c0.346,0.425,0.321,1.034-0.06,1.428
	c-1.511,1.569-2.038,3.943-1.152,6.085c0.889,2.14,2.94,3.445,5.118,3.488c0.548,0.009,0.996,0.423,1.05,0.968
	c0.187,1.843,0.137,3.685-0.13,5.483c-2.501-0.368-5.027,0.986-6.038,3.428c-0.886,2.14-0.358,4.515,1.151,6.084
	c0.38,0.394,0.404,1.002,0.059,1.425c-0.934,1.146-1.987,2.202-3.15,3.154c-0.425,0.346-1.033,0.32-1.429-0.059
	c-1.568-1.512-3.943-2.038-6.083-1.152c-2.141,0.888-3.447,2.939-3.489,5.118c-0.009,0.547-0.423,0.995-0.968,1.05
	c-1.496,0.151-2.988,0.146-4.457,0c-0.545-0.057-0.958-0.505-0.968-1.053c-0.041-2.176-1.347-4.228-3.486-5.115
	c-2.143-0.886-4.516-0.359-6.085,1.152c-0.395,0.379-1.003,0.404-1.426,0.059c-1.145-0.935-2.203-1.988-3.154-3.15
	c-0.348-0.424-0.322-1.035,0.06-1.429c1.51-1.567,2.038-3.943,1.15-6.084c-0.886-2.141-2.939-3.446-5.117-3.486
	c-0.547-0.012-0.996-0.423-1.051-0.968c-0.149-1.495-0.146-2.989,0.002-4.459c0.055-0.543,0.504-0.958,1.052-0.966
	c2.176-0.043,4.229-1.349,5.114-3.488c0.888-2.141,0.36-4.516-1.15-6.083C4.747,9.253,4.723,8.646,5.069,8.221
	C6.003,7.077,7.056,6.02,8.221,5.067c0.423-0.346,1.032-0.321,1.427,0.059c1.57,1.511,3.943,2.039,6.086,1.151
	c2.14-0.886,3.445-2.939,3.487-5.118C19.229,0.613,19.643,0.165,20.188,0.111L20.188,0.111z M20.5,17.786
	c-2.559,1.06-3.774,3.991-2.715,6.547c1.062,2.559,3.993,3.774,6.549,2.713c2.557-1.059,3.771-3.99,2.713-6.547
	S23.056,16.728,20.5,17.786z"/>
<path fill="#FFFFFF" d="M40.735,47.394c-2.021,0.42-4.016-0.66-5.086-1.458l-0.702,0.146l-4.612-20.623
	c-0.317-1.377-0.079-2.97,0.694-4.177c0.755-1.181,1.901-2.036,3.247-2.317l33.131-6.859c2.802-0.579,5.605,1.203,6.254,4.005
	l3.154,14.082l0.09-0.019l0.896,3.871c0.317,1.373,0.078,2.784-0.676,3.961c-0.755,1.18-1.911,2.094-3.296,2.383L40.735,47.394z"/>
<g>
	<path fill="#939393" d="M37.052,42.46c0.344,1.502,1.85,2.468,3.36,2.154l33.12-6.842c1.508-0.311,2.451-1.781,2.104-3.284
		l-0.352-1.524l-38.587,7.972L37.052,42.46z"/>
	<path fill="#939393" d="M68.14,14.417l-33.12,6.842c-1.509,0.311-2.453,1.782-2.106,3.286l2.821,12.21l38.59-7.969l-2.823-12.213
		C71.153,15.069,69.649,14.105,68.14,14.417z M58.808,28.649l-20.826,4.348l-0.416-1.991l20.826-4.347L58.808,28.649z
		 M70.886,25.205c0.109,0.522-0.226,1.036-0.749,1.145l-5.579,1.165c-0.523,0.109-1.034-0.228-1.144-0.75l-1.165-5.579
		c-0.109-0.522,0.225-1.036,0.749-1.145l5.579-1.165c0.522-0.109,1.035,0.227,1.144,0.75L70.886,25.205z"/>
</g>
<circle fill-rule="evenodd" clip-rule="evenodd" fill="#006E82" cx="22.417" cy="22.417" r="5.482"/>
</svg>
