<?xml version="1.0" encoding="utf-8"?>
<!-- Generator: Adobe Illustrator 16.2.0, SVG Export Plug-In . SVG Version: 6.00 Build 0)  -->
<!DOCTYPE svg PUBLIC "-//W3C//DTD SVG 1.1//EN" "http://www.w3.org/Graphics/SVG/1.1/DTD/svg11.dtd">
<svg version="1.1" id="Layer_1" xmlns="http://www.w3.org/2000/svg" xmlns:xlink="http://www.w3.org/1999/xlink" x="0px" y="0px"
	 width="72.233px" height="48.002px" viewBox="0 0 72.233 48.002" enable-background="new 0 0 72.233 48.002" xml:space="preserve">
<rect x="2.273" y="7.346" fill="#FFFFFF" width="46" height="31"/>
<path fill-rule="evenodd" clip-rule="evenodd" fill="#69BE44" d="M6.733,32.659c0,0.777,0.636,1.413,1.414,1.413h3.331
	c0.778,0,1.414-0.636,1.414-1.413v-3.534c0-0.778-0.636-1.414-1.414-1.414H8.147c-0.778,0-1.414,0.636-1.414,1.414V32.659
	L6.733,32.659z"/>
<path fill-rule="evenodd" clip-rule="evenodd" fill="#006E82" d="M6.733,24.816c0,0.778,0.636,1.414,1.414,1.414h3.331
	c0.778,0,1.414-0.636,1.414-1.414v-3.535c0-0.777-0.636-1.413-1.414-1.413H8.147c-0.778,0-1.414,0.636-1.414,1.413V24.816
	L6.733,24.816z"/>
<path fill-rule="evenodd" clip-rule="evenodd" fill="#69BE44" d="M16.747,32.659c0,0.777,0.637,1.413,1.415,1.413h3.33
	c0.777,0,1.414-0.636,1.414-1.413v-3.534c0-0.778-0.637-1.414-1.414-1.414h-3.33c-0.778,0-1.415,0.636-1.415,1.414V32.659
	L16.747,32.659z"/>
<path fill-rule="evenodd" clip-rule="evenodd" fill="#69BE44" d="M16.747,24.816c0,0.778,0.637,1.414,1.415,1.414h3.33
	c0.777,0,1.414-0.636,1.414-1.414v-3.535c0-0.777-0.637-1.413-1.414-1.413h-3.33c-0.778,0-1.415,0.636-1.415,1.413V24.816
	L16.747,24.816z"/>
<path fill-rule="evenodd" clip-rule="evenodd" fill="#69BE44" d="M26.76,32.659c0,0.777,0.637,1.413,1.413,1.413h3.332
	c0.777,0,1.414-0.636,1.414-1.413v-3.534c0-0.778-0.637-1.414-1.414-1.414h-3.332c-0.776,0-1.413,0.636-1.413,1.414V32.659
	L26.76,32.659z"/>
<path fill-rule="evenodd" clip-rule="evenodd" fill="#69BE44" d="M26.76,24.816c0,0.778,0.637,1.414,1.413,1.414h3.332
	c0.777,0,1.414-0.636,1.414-1.414v-3.535c0-0.777-0.637-1.413-1.414-1.413h-3.332c-0.776,0-1.413,0.636-1.413,1.413V24.816
	L26.76,24.816z"/>
<path fill-rule="evenodd" clip-rule="evenodd" fill="#69BE44" d="M6.733,16.972c0,0.778,0.636,1.414,1.414,1.414h3.331
	c0.778,0,1.414-0.635,1.414-1.414v-3.534c0-0.777-0.636-1.413-1.414-1.413H8.147c-0.778,0-1.414,0.636-1.414,1.413V16.972
	L6.733,16.972z"/>
<path fill-rule="evenodd" clip-rule="evenodd" fill="#69BE44" d="M16.747,16.972c0,0.778,0.637,1.414,1.415,1.414h3.33
	c0.777,0,1.414-0.635,1.414-1.414v-3.534c0-0.777-0.637-1.413-1.414-1.413h-3.33c-0.778,0-1.415,0.636-1.415,1.413V16.972
	L16.747,16.972z"/>
<path fill-rule="evenodd" clip-rule="evenodd" fill="#69BE44" d="M26.76,16.972c0,0.778,0.637,1.414,1.413,1.414h3.332
	c0.777,0,1.414-0.635,1.414-1.414v-3.534c0-0.777-0.637-1.413-1.414-1.413h-3.332c-0.776,0-1.413,0.636-1.413,1.413V16.972
	L26.76,16.972z"/>
<path fill-rule="evenodd" clip-rule="evenodd" fill="#69BE44" d="M36.773,32.659c0,0.777,0.637,1.413,1.414,1.413h3.332
	c0.777,0,1.413-0.636,1.413-1.413v-3.534c0-0.778-0.636-1.414-1.413-1.414h-3.332c-0.777,0-1.414,0.636-1.414,1.414V32.659
	L36.773,32.659z"/>
<path fill-rule="evenodd" clip-rule="evenodd" fill="#69BE44" d="M36.773,24.816c0,0.778,0.637,1.414,1.414,1.414h3.332
	c0.777,0,1.413-0.636,1.413-1.414v-3.535c0-0.777-0.636-1.413-1.413-1.413h-3.332c-0.777,0-1.414,0.636-1.414,1.413V24.816
	L36.773,24.816z"/>
<path fill-rule="evenodd" clip-rule="evenodd" fill="#69BE44" d="M36.773,16.972c0,0.778,0.637,1.414,1.414,1.414h3.332
	c0.777,0,1.413-0.635,1.413-1.414v-3.534c0-0.777-0.636-1.413-1.413-1.413h-3.332c-0.777,0-1.414,0.636-1.414,1.413V16.972
	L36.773,16.972z"/>
<path fill="#006E82" d="M14.111,9.722c-0.829,0-1.5-0.671-1.5-1.5V1.5c0-0.829,0.671-1.5,1.5-1.5c0.828,0,1.5,0.671,1.5,1.5v6.722
	C15.611,9.051,14.939,9.722,14.111,9.722z"/>
<path fill="#006E82" d="M35.457,9.722c-0.828,0-1.5-0.671-1.5-1.5V1.5c0-0.829,0.672-1.5,1.5-1.5c0.829,0,1.5,0.671,1.5,1.5v6.722
	C36.957,9.051,36.286,9.722,35.457,9.722z"/>
<g>
	<path fill="#69BE44" d="M46.137,2.861h-6.18v6h6.18c0.275,0,0.5,0.224,0.5,0.5v27.686c0,0.275-0.225,0.5-0.5,0.5H3.5
		c-0.275,0-0.5-0.225-0.5-0.5V9.361c0-0.276,0.225-0.5,0.5-0.5h6.111v-6H3.5c-1.93,0-3.5,1.57-3.5,3.5v30.686
		c0,1.93,1.57,3.5,3.5,3.5h42.637c1.93,0,3.5-1.57,3.5-3.5V6.361C49.637,4.432,48.066,2.861,46.137,2.861z"/>
	<rect x="18.611" y="2.861" fill="#69BE44" width="12.346" height="6"/>
</g>
<path fill="#FFFFFF" d="M35.031,47.909c-2.021,0.42-4.016-0.66-5.086-1.458l-0.702,0.146l-4.612-20.623
	c-0.317-1.377-0.079-2.97,0.694-4.177c0.755-1.181,1.901-2.036,3.247-2.317l33.131-6.859c2.802-0.579,5.605,1.203,6.254,4.005
	l3.154,14.082l0.09-0.019l0.896,3.871c0.317,1.373,0.078,2.784-0.676,3.961c-0.755,1.18-1.911,2.094-3.296,2.383L35.031,47.909z"/>
<g>
	<path fill="#939393" d="M31.348,42.975c0.344,1.502,1.85,2.468,3.36,2.154l33.12-6.842c1.508-0.311,2.451-1.781,2.104-3.284
		l-0.352-1.524l-38.587,7.972L31.348,42.975z"/>
	<path fill="#939393" d="M62.436,14.932l-33.12,6.842c-1.509,0.311-2.453,1.782-2.106,3.286l2.821,12.21l38.59-7.969l-2.823-12.213
		C65.449,15.584,63.945,14.621,62.436,14.932z M53.104,29.165l-20.826,4.348l-0.416-1.991l20.826-4.347L53.104,29.165z
		 M65.182,25.72c0.109,0.522-0.226,1.036-0.749,1.145l-5.579,1.165c-0.523,0.109-1.034-0.228-1.144-0.75L56.545,21.7
		c-0.109-0.522,0.225-1.036,0.749-1.145l5.579-1.165c0.522-0.109,1.035,0.227,1.144,0.75L65.182,25.72z"/>
</g>
</svg>
