<?xml version="1.0" encoding="utf-8"?>
<!-- Generator: Adobe Illustrator 16.2.0, SVG Export Plug-In . SVG Version: 6.00 Build 0)  -->
<!DOCTYPE svg PUBLIC "-//W3C//DTD SVG 1.1//EN" "http://www.w3.org/Graphics/SVG/1.1/DTD/svg11.dtd">
<svg version="1.1" id="Layer_1" xmlns="http://www.w3.org/2000/svg" xmlns:xlink="http://www.w3.org/1999/xlink" x="0px" y="0px"
	 width="12.879px" height="17px" viewBox="0 0 12.879 17" enable-background="new 0 0 12.879 17" xml:space="preserve">
<g>
	<g>
		<path fill="#505050" d="M11.358,15.798H1.521c-0.344,0-0.623,0.27-0.623,0.601C0.898,16.73,1.178,17,1.521,17h9.836
			c0.344,0,0.623-0.27,0.623-0.602C11.981,16.067,11.702,15.798,11.358,15.798z M12.696,5.792c-0.242-0.235-0.637-0.235-0.881,0
			L7.063,10.38V0.601C7.063,0.27,6.784,0,6.44,0S5.817,0.27,5.817,0.601v9.779L1.063,5.791c-0.242-0.234-0.637-0.234-0.88,0
			s-0.243,0.615,0,0.85l5.816,5.616c0.016,0.016,0.037,0.021,0.054,0.034c0.047,0.036,0.093,0.072,0.149,0.095
			c0.076,0.031,0.156,0.047,0.238,0.047c0.08,0,0.161-0.016,0.237-0.046c0.077-0.031,0.147-0.076,0.205-0.133l5.813-5.612
			C12.94,6.407,12.94,6.026,12.696,5.792z"/>
	</g>
</g>
</svg>
