<?xml version="1.0" encoding="utf-8"?>
<!-- Generator: Adobe Illustrator 16.2.0, SVG Export Plug-In . SVG Version: 6.00 Build 0)  -->
<!DOCTYPE svg PUBLIC "-//W3C//DTD SVG 1.1//EN" "http://www.w3.org/Graphics/SVG/1.1/DTD/svg11.dtd">
<svg version="1.1" id="Layer_1" xmlns="http://www.w3.org/2000/svg" xmlns:xlink="http://www.w3.org/1999/xlink" x="0px" y="0px"
	 width="182.75px" height="128.703px" viewBox="0 0 182.75 128.703" enable-background="new 0 0 182.75 128.703"
	 xml:space="preserve">
<g>
	<path fill="#016E81" d="M99.336,60.29L73.262,2.983c-1.63-3.493-6.208-3.47-7.809,0.04L62.608,9.26
		c-0.62,1.359-0.61,2.958,0.025,4.309L84.096,60.29H99.336z"/>
	<path fill="#6ABC45" d="M39.437,60.304L65.498,2.892c1.549-3.394,6.163-3.345,7.741,0.033L76.2,9.446
		c0.609,1.308,0.605,2.854,0.001,4.167L54.713,60.288L39.437,60.304z"/>
	<path fill="#231F20" d="M25.377,0.001c14.073,0,21.023,9.793,21.023,19.594c0,9.801-6.95,19.519-21.023,19.519H13.064v21.19H0
		V6.364c0-4.024,1.756-6.363,6.281-6.363H25.377z M24.289,26.885c6.028,0,9.047-3.601,9.047-7.29c0-3.683-3.019-7.365-9.047-7.365
		H13.064v14.655H24.289z"/>
	<rect x="107.485" y="0.001" fill="#231F20" width="13.065" height="60.302"/>
	<path fill="#231F20" d="M139.531,60.305c-4.525,0-6.282-2.348-6.282-6.364V6.364c0-4.023,1.757-6.364,6.282-6.364h14.154
		c19.349,0,29.064,15.073,29.064,30.152c0,15.073-9.716,30.153-29.064,30.153H139.531z M146.313,12.229v35.847h6.535
		c11.139,0,16.835-8.962,16.835-17.923c0-8.962-5.696-17.923-16.835-17.923H146.313z"/>
	<path fill="#231F20" d="M92.753,67.813v39.277c0,14.491-11.747,21.613-23.49,21.613c-11.748,0-23.414-7.122-23.414-21.613V67.813
		h12.296v37.939c0,7.202,5.52,10.722,11.118,10.722c5.597,0,11.195-3.52,11.195-10.722V67.813H92.753z"/>
	<path fill="#231F20" d="M132.864,67.813c14.072,0,21.022,9.794,21.022,19.595c0,9.8-6.95,19.519-21.022,19.519h-12.313v21.189
		h-13.064V67.813H132.864z M131.775,94.698c6.028,0,9.048-3.601,9.048-7.29c0-3.683-3.02-7.366-9.048-7.366h-11.225v14.656H131.775z
		"/>
</g>
</svg>
