<?xml version="1.0" encoding="UTF-8" standalone="no"?>
<svg
   xmlns:dc="http://purl.org/dc/elements/1.1/"
   xmlns:cc="http://creativecommons.org/ns#"
   xmlns:rdf="http://www.w3.org/1999/02/22-rdf-syntax-ns#"
   xmlns:svg="http://www.w3.org/2000/svg"
   xmlns="http://www.w3.org/2000/svg"
   viewBox="0 0 412.5 285"
   height="285"
   width="412.5"
   xml:space="preserve"
   version="1.1"
   id="svg2"><metadata
     id="metadata8"><rdf:RDF><cc:Work
         rdf:about=""><dc:format>image/svg+xml</dc:format><dc:type
           rdf:resource="http://purl.org/dc/dcmitype/StillImage" /></cc:Work></rdf:RDF></metadata><defs
     id="defs6"><clipPath
       id="clipPath16"
       clipPathUnits="userSpaceOnUse"><path
         id="path18"
         d="M 0,228 330,228 330,0 0,0 0,228 Z" /></clipPath></defs><g
     transform="matrix(1.25,0,0,-1.25,0,285)"
     id="g10"><g
       id="g12"><g
         clip-path="url(#clipPath16)"
         id="g14"><g
           transform="translate(170.3399,113.845)"
           id="g20"><path
             id="path22"
             style="fill:#287587;fill-opacity:1;fill-rule:nonzero;stroke:none"
             d="m 0,0 -36.635,80.518 c -2.291,4.906 -8.723,4.874 -10.972,-0.056 l -3.997,-8.764 c -0.871,-1.909 -0.858,-4.157 0.035,-6.053 L -21.412,0 0,0 Z" /></g><g
           transform="translate(86.1802,113.8252)"
           id="g24"><path
             id="path26"
             style="fill:#72bf50;fill-opacity:1;fill-rule:nonzero;stroke:none"
             d="m 0,0 36.616,80.663 c 2.177,4.769 8.661,4.701 10.876,-0.046 l 4.16,-9.161 c 0.858,-1.838 0.851,-4.01 0.002,-5.854 L 21.465,0.022 0,0 Z" /></g><g
           transform="translate(64.8977,160.7787)"
           id="g28"><path
             id="path30"
             style="fill:#373535;fill-opacity:1;fill-rule:nonzero;stroke:none"
             d="m 0,0 c 8.471,0 12.711,5.059 12.711,10.244 0,5.174 -4.24,10.348 -12.711,10.348 l -15.773,0 L -15.773,0 0,0 Z m 1.528,37.774 c 19.774,0 29.538,-13.761 29.538,-27.53 0,-13.77 -9.764,-27.425 -29.538,-27.425 l -17.301,0 0,-29.772 -18.355,0 0,75.786 c 0,5.654 2.468,8.941 8.826,8.941 l 26.83,0 z" /></g><path
           id="path32"
           style="fill:#373535;fill-opacity:1;fill-rule:nonzero;stroke:none"
           d="m 200.146,113.825 -18.355,0 0,84.727 18.355,0 0,-84.727 z" /><g
           transform="translate(236.3437,181.3712)"
           id="g34"><path
             id="path36"
             style="fill:#373535;fill-opacity:1;fill-rule:nonzero;stroke:none"
             d="m 0,0 0,-50.365 9.18,0 c 15.653,0 23.654,12.591 23.654,25.183 C 32.834,-12.591 24.833,0 9.18,0 L 0,0 Z m -9.53,-67.546 c -6.358,0 -8.825,3.296 -8.825,8.94 l 0,66.847 c 0,5.653 2.467,8.94 8.825,8.94 l 19.889,0 c 27.185,0 40.835,-21.177 40.835,-42.363 0,-21.177 -13.65,-42.364 -40.835,-42.364 l -19.889,0 z" /></g><g
           transform="translate(161.0916,103.2736)"
           id="g38"><path
             id="path40"
             style="fill:#373535;fill-opacity:1;fill-rule:nonzero;stroke:none"
             d="m 0,0 0,-55.185 c 0,-20.362 -16.505,-30.366 -33.005,-30.366 -16.505,0 -32.898,10.004 -32.898,30.366 l 0,55.185 17.277,0 0,-53.307 c 0,-10.119 7.756,-15.063 15.621,-15.063 7.864,0 15.729,4.944 15.729,15.063 L -17.276,0 0,0 Z" /></g><g
           transform="translate(215.9186,65.5)"
           id="g42"><path
             id="path44"
             style="fill:#373535;fill-opacity:1;fill-rule:nonzero;stroke:none"
             d="m 0,0 c 8.471,0 12.711,5.059 12.711,10.244 0,5.174 -4.24,10.348 -12.711,10.348 l -15.773,0 L -15.773,0 0,0 Z m 1.528,37.774 c 19.774,0 29.538,-13.761 29.538,-27.53 0,-13.77 -9.764,-27.425 -29.538,-27.425 l -17.301,0 0,-29.773 -18.355,0 0,84.728 35.656,0 z" /></g></g></g></g></svg>