<?xml version="1.0" encoding="UTF-8"?>
<svg width="120px" height="146px" viewBox="0 0 120 146" version="1.1" xmlns="http://www.w3.org/2000/svg" xmlns:xlink="http://www.w3.org/1999/xlink">
    <!-- Generator: Sketch 50 (54983) - http://www.bohemiancoding.com/sketch -->
    <title>guard</title>
    <desc>Created with Sketch.</desc>
    <defs></defs>
    <g id="Parent-Portal" stroke="none" stroke-width="1" fill="none" fill-rule="evenodd" stroke-linecap="round">
        <g id="302.-PP---Add-Player-&gt;-Confirmation" transform="translate(-819.000000, -387.000000)" stroke="#00B39F">
            <g id="guard" transform="translate(820.000000, 388.000000)">
                <path d="M59,144 C67.5552743,144 118,110.819523 118,33.3270281 C92.408914,33.3270281 60.4074761,0.661545344 60.4074761,0.661545344 C59.6301485,-0.10488197 58.3560156,-0.0912870373 57.5653258,0.672218688 C57.5653258,0.672218688 25.1790661,33.3270281 0,33.3270281 C1.10730378,111.039618 50.5193272,144 59,144 Z" id="Oval" stroke-linejoin="round"></path>
                <path d="M32.5265618,28 C24.6040958,33.1942659 14.9245854,37.939151 6,37.939151 C6.22219701,53.1542184 8.92834172,66.1239649 12.9425223,77 M109.213869,59.0063042 C110.354247,52.5255249 111,45.509066 111,37.939151 C103.81823,37.939151 96.2418953,34.9646478 89.4762486,31.1476909" id="Oval" stroke-linejoin="round"></path>
                <path d="M59,113 L59,37" id="Path-10"></path>
                <path d="M59,74.5 C49.6111593,74.5 42,68.3439153 42,60.75 C42,53.1560847 49.6111593,47 59,47 C63.7297768,47 68.0084136,48.562291 71.0901256,51.0836647 C72.1607672,51.9596347 73.086941,52.9513652 73.837374,54.0335618 L73.837374,54.0335618 M59,74.5 C68.3888407,74.5 76,80.6560847 76,88.25 C76,95.8439153 68.3888407,102 59,102 C54.4106004,102 50.245959,100.529069 47.1874085,98.138284 C46.1321302,97.3134021 45.2085239,96.3790184 44.4445739,95.3577671 L44.4445739,95.3577671" id="Combined-Shape"></path>
            </g>
        </g>
    </g>
</svg>