<?xml version="1.0" encoding="UTF-8"?>
<svg width="114px" height="113px" viewBox="0 0 114 113" version="1.1" xmlns="http://www.w3.org/2000/svg" xmlns:xlink="http://www.w3.org/1999/xlink">
    <!-- Generator: Sketch 50 (54983) - http://www.bohemiancoding.com/sketch -->
    <title>shuttle</title>
    <desc>Created with Sketch.</desc>
    <defs></defs>
    <g id="Parent-Portal" stroke="none" stroke-width="1" fill="none" fill-rule="evenodd">
        <g id="006.-PP---First-Login-(No-Invoices-or-Players)" transform="translate(-814.000000, -423.000000)" stroke="#00B39F">
            <g id="shuttle" transform="translate(872.449008, 478.449008) rotate(45.000000) translate(-872.449008, -478.449008) translate(819.449008, 404.949008)">
                <path d="M34.8421509,27.8514634 L34.8421509,90.5021135 L53.1493026,103.120792 L70.8890165,90.5067369 L70.8965726,27.9815618 C70.9034883,27.9423175 70.9035537,27.9154281 70.9002263,27.8999959 L70.8981984,27.8905942 C69.7883292,22.7473652 67.8839575,16.692991 65.4207966,11.6806674 C61.930496,4.57820151 57.7948832,0.5 53.0761917,0.5 C48.3595088,0.5 44.1598677,4.57780991 40.5603302,11.6766903 C38.0246793,16.6774113 36.0253122,22.7295445 34.8421509,27.8514667 Z" id="Combined-Shape"></path>
                <path d="M70.8210582,27.6010001 C65.6992948,26.5336769 59.9147577,25.9327841 53.791739,25.9327841 C47.1697065,25.9327841 40.943575,26.6356112 35.5235612,27.8711755" id="Oval-5"></path>
                <path d="M70.8210582,79.4665683 C65.6992948,78.3992451 59.9147577,77.7983522 53.791739,77.7983522 C47.1697065,77.7983522 40.943575,78.5011793 35.5235612,79.7367436" id="Oval-5"></path>
                <path d="M66.0577584,13.8059131 C62.209889,13.261672 58.0839793,12.966392 53.791739,12.966392 C48.7970669,12.966392 44.0276204,13.3662261 39.6594191,14.0929107" id="Oval-5-Copy"></path>
                <g id="Group" transform="translate(69.536644, 25.932784)">
                    <path d="M0.5,3.76788916 L0.5,64.3319602 L34.6927147,64.3319602 C34.6136464,53.3335274 31.8865354,48.7130958 24.3410551,43.0344605 C24.0029811,42.7800302 22.3437857,41.5455547 21.8746107,41.1913911 C20.896921,40.4533677 20.0986925,39.8271979 19.3300274,39.187053 C16.6712039,36.9727827 14.5429881,34.7132426 12.6496727,31.9230936 C10.5691349,28.8570379 8.61136746,25.2257075 6.77818703,21.1455522 C4.71097994,16.5445179 2.90682285,11.6182332 1.37558566,6.69237206 C1.05827798,5.67161999 0.766323228,4.69396727 0.5,3.76788916 Z" id="Rectangle-20"></path>
                    <path d="M1.11995145,53.9746449 L32.6854187,53.9746449" id="Path-17"></path>
                </g>
                <g id="Group" transform="translate(18.194493, 58.432784) scale(-1, 1) translate(-18.194493, -58.432784) translate(0.194493, 25.932784)">
                    <path d="M0.5,3.76788916 L0.5,64.3319602 L34.6927147,64.3319602 C34.6136464,53.3335274 31.8865354,48.7130958 24.3410551,43.0344605 C24.0029811,42.7800302 22.3437857,41.5455547 21.8746107,41.1913911 C20.896921,40.4533677 20.0986925,39.8271979 19.3300274,39.187053 C16.6712039,36.9727827 14.5429881,34.7132426 12.6496727,31.9230936 C10.5691349,28.8570379 8.61136746,25.2257075 6.77818703,21.1455522 C4.71097994,16.5445179 2.90682285,11.6182332 1.37558566,6.69237206 C1.05827798,5.67161999 0.766323228,4.69396727 0.5,3.76788916 Z" id="Rectangle-20"></path>
                    <path d="M1.11995145,53.9746449 L32.6854187,53.9746449" id="Path-17"></path>
                </g>
                <path d="M52.909019,102.472337 L70.724623,89.9647637 L82.5913191,109.972183 L75.3907448,109.972183 L75.3907448,132.047447 L63.4616554,118.595348 L52.8655681,146.80186 L52.8655681,146.335832 L42.3577644,118.595348 L30.428675,132.047447 L30.428675,109.972183 L23.2281006,109.972183 L34.7701805,90.13032 L52.909019,102.472337 Z" id="Combined-Shape" stroke-linecap="round" stroke-linejoin="round"></path>
            </g>
        </g>
    </g>
</svg>